<svg xmlns="http://www.w3.org/2000/svg" width="232.505886" height="173.92" viewBox="0 0 232.505886 173.92"><title>25-20 Win. - chamber</title><defs><clipPath id="steel-25_20_win"><path d="M21.488,95.52 L28.088,95.52 L28.088,92.08 L107.180992,91.294178 L107.358185,91.290872 L107.535292,91.284475 L107.712261,91.274991 L107.889038,91.262421 L108.065569,91.246769 L108.241799,91.228041 L108.417677,91.206241 L108.593147,91.181378 L108.768157,91.153457 L108.942653,91.122488 L109.116583,91.08848 L109.289892,91.051444 L109.46253,91.01139 L109.634443,90.968331 L109.805578,90.922279 L109.975884,90.87325 L115.100175,89.349507 L115.422291,89.256841 L115.746008,89.169932 L116.071223,89.088809 L116.397833,89.013496 L116.725733,88.944018 L117.05482,88.880396 L117.384989,88.822652 L117.716135,88.770803 L118.048152,88.724867 L118.380936,88.684856 L118.71438,88.650785 L119.048379,88.622664 L119.382826,88.600502 L119.717614,88.584306 L120.052639,88.574082 L120.387792,88.569831 L160.168,88.42 L165.568,88.42 L176.505886,86.98 L216.505886,86.98 L216.505886,107.52 L21.488,107.52 Z M21.488,53.04 L28.088,53.04 L28.088,56.48 L107.180992,57.265822 L107.358185,57.269128 L107.535292,57.275525 L107.712261,57.285009 L107.889038,57.297579 L108.065569,57.313231 L108.241799,57.331959 L108.417677,57.353759 L108.593147,57.378622 L108.768157,57.406543 L108.942653,57.437512 L109.116583,57.47152 L109.289892,57.508556 L109.46253,57.54861 L109.634443,57.591669 L109.805578,57.637721 L109.975884,57.68675 L115.100175,59.210493 L115.422291,59.303159 L115.746008,59.390068 L116.071223,59.471191 L116.397833,59.546504 L116.725733,59.615982 L117.05482,59.679604 L117.384989,59.737348 L117.716135,59.789197 L118.048152,59.835133 L118.380936,59.875144 L118.71438,59.909215 L119.048379,59.937336 L119.382826,59.959498 L119.717614,59.975694 L120.052639,59.985918 L120.387792,59.990169 L160.168,60.14 L165.568,60.14 L176.505886,61.58 L216.505886,61.58 L216.505886,41.04 L21.488,41.04 Z"/></clipPath></defs><g clip-path="url(#steel-25_20_win)"><path d="M21.488,95.52 L28.088,95.52 L28.088,92.08 L107.180992,91.294178 L107.358185,91.290872 L107.535292,91.284475 L107.712261,91.274991 L107.889038,91.262421 L108.065569,91.246769 L108.241799,91.228041 L108.417677,91.206241 L108.593147,91.181378 L108.768157,91.153457 L108.942653,91.122488 L109.116583,91.08848 L109.289892,91.051444 L109.46253,91.01139 L109.634443,90.968331 L109.805578,90.922279 L109.975884,90.87325 L115.100175,89.349507 L115.422291,89.256841 L115.746008,89.169932 L116.071223,89.088809 L116.397833,89.013496 L116.725733,88.944018 L117.05482,88.880396 L117.384989,88.822652 L117.716135,88.770803 L118.048152,88.724867 L118.380936,88.684856 L118.71438,88.650785 L119.048379,88.622664 L119.382826,88.600502 L119.717614,88.584306 L120.052639,88.574082 L120.387792,88.569831 L160.168,88.42 L165.568,88.42 L176.505886,86.98 L216.505886,86.98 L216.505886,107.52 L21.488,107.52 Z M21.488,53.04 L28.088,53.04 L28.088,56.48 L107.180992,57.265822 L107.358185,57.269128 L107.535292,57.275525 L107.712261,57.285009 L107.889038,57.297579 L108.065569,57.313231 L108.241799,57.331959 L108.417677,57.353759 L108.593147,57.378622 L108.768157,57.406543 L108.942653,57.437512 L109.116583,57.47152 L109.289892,57.508556 L109.46253,57.54861 L109.634443,57.591669 L109.805578,57.637721 L109.975884,57.68675 L115.100175,59.210493 L115.422291,59.303159 L115.746008,59.390068 L116.071223,59.471191 L116.397833,59.546504 L116.725733,59.615982 L117.05482,59.679604 L117.384989,59.737348 L117.716135,59.789197 L118.048152,59.835133 L118.380936,59.875144 L118.71438,59.909215 L119.048379,59.937336 L119.382826,59.959498 L119.717614,59.975694 L120.052639,59.985918 L120.387792,59.990169 L160.168,60.14 L165.568,60.14 L176.505886,61.58 L216.505886,61.58 L216.505886,41.04 L21.488,41.04 Z" fill="none" stroke="#111" stroke-width="0.9600"/></g><line x1="21.488" y1="7.440" x2="21.488" y2="161.520" stroke="#999" stroke-width="0.1680"/><line x1="160.168" y1="109.520" x2="160.168" y2="123.120" stroke="#999" stroke-width="0.1680"/><line x1="165.568" y1="109.520" x2="165.568" y2="123.120" stroke="#999" stroke-width="0.1680"/><line x1="160.168" y1="119.520" x2="165.568" y2="119.520" stroke="#444" stroke-width="0.2400"/><path d="M160.168,119.520 L164.568,118.112 L164.568,120.928 Z" fill="#444"/><path d="M165.568,119.520 L161.168,120.928 L161.168,118.112 Z" fill="#444"/><text x="162.868" y="117.280" font-size="6.4000" text-anchor="middle" fill="#1f3f5f" font-family="sans-serif">G</text><line x1="108.608" y1="109.520" x2="108.608" y2="135.920" stroke="#999" stroke-width="0.1680"/><line x1="21.488" y1="132.320" x2="108.608" y2="132.320" stroke="#444" stroke-width="0.2400"/><path d="M21.488,132.320 L25.888,130.912 L25.888,133.728 Z" fill="#444"/><path d="M108.608,132.320 L104.208,133.728 L104.208,130.912 Z" fill="#444"/><text x="82.472" y="130.080" font-size="6.4000" text-anchor="middle" fill="#1f3f5f" font-family="sans-serif">L1</text><line x1="117.688" y1="109.520" x2="117.688" y2="148.720" stroke="#999" stroke-width="0.1680"/><line x1="21.488" y1="145.120" x2="117.688" y2="145.120" stroke="#444" stroke-width="0.2400"/><path d="M21.488,145.120 L25.888,143.712 L25.888,146.528 Z" fill="#444"/><path d="M117.688,145.120 L113.288,146.528 L113.288,143.712 Z" fill="#444"/><text x="82.472" y="142.880" font-size="6.4000" text-anchor="middle" fill="#1f3f5f" font-family="sans-serif">L2</text><line x1="160.168" y1="109.520" x2="160.168" y2="161.520" stroke="#999" stroke-width="0.1680"/><line x1="21.488" y1="157.920" x2="160.168" y2="157.920" stroke="#444" stroke-width="0.2400"/><path d="M21.488,157.920 L25.888,156.512 L25.888,159.328 Z" fill="#444"/><path d="M160.168,157.920 L155.768,159.328 L155.768,156.512 Z" fill="#444"/><text x="82.472" y="155.680" font-size="6.4000" text-anchor="middle" fill="#1f3f5f" font-family="sans-serif">L3</text><line x1="165.808" y1="39.040" x2="165.808" y2="7.440" stroke="#999" stroke-width="0.1680"/><line x1="21.488" y1="11.040" x2="165.808" y2="11.040" stroke="#444" stroke-width="0.2400"/><path d="M21.488,11.040 L25.888,9.632 L25.888,12.448 Z" fill="#444"/><path d="M165.808,11.040 L161.408,12.448 L161.408,9.632 Z" fill="#444"/><text x="122.512" y="8.800" font-size="6.4000" text-anchor="middle" fill="#1f3f5f" font-family="sans-serif">S</text><line x1="28.088" y1="39.040" x2="28.088" y2="25.440" stroke="#999" stroke-width="0.1680"/><line x1="11.808" y1="29.040" x2="37.768" y2="29.040" stroke="#444" stroke-width="0.2400"/><path d="M21.488,29.040 L17.088,30.448 L17.088,27.632 Z" fill="#444"/><path d="M28.088,29.040 L32.488,27.632 L32.488,30.448 Z" fill="#444"/><text x="7.968" y="30.640" font-size="6.4000" text-anchor="end" fill="#1f3f5f" font-family="sans-serif">R</text><line x1="44.192" y1="29.040" x2="44.192" y2="101.760" stroke="#444" stroke-width="0.2400"/><path d="M44.192,56.480 L42.784,52.080 L45.600,52.080 Z" fill="#444"/><path d="M44.192,92.080 L45.600,96.480 L42.784,96.480 Z" fill="#444"/><text x="46.432" y="29.040" font-size="6.4000" text-anchor="start" fill="#1f3f5f" font-family="sans-serif" transform="rotate(90 46.432 29.040)">P1</text><line x1="108.608" y1="29.040" x2="108.608" y2="100.960" stroke="#444" stroke-width="0.2400"/><path d="M108.608,57.280 L107.200,52.880 L110.016,52.880 Z" fill="#444"/><path d="M108.608,91.280 L110.016,95.680 L107.200,95.680 Z" fill="#444"/><text x="110.848" y="29.040" font-size="6.4000" text-anchor="start" fill="#1f3f5f" font-family="sans-serif" transform="rotate(90 110.848 29.040)">P2</text><line x1="117.688" y1="29.040" x2="117.688" y2="98.260" stroke="#444" stroke-width="0.2400"/><path d="M117.688,59.980 L116.280,55.580 L119.096,55.580 Z" fill="#444"/><path d="M117.688,88.580 L119.096,92.980 L116.280,92.980 Z" fill="#444"/><text x="119.928" y="29.040" font-size="6.4000" text-anchor="start" fill="#1f3f5f" font-family="sans-serif" transform="rotate(90 119.928 29.040)">H1</text><line x1="160.168" y1="29.040" x2="160.168" y2="98.100" stroke="#444" stroke-width="0.2400"/><path d="M160.168,60.140 L158.760,55.740 L161.576,55.740 Z" fill="#444"/><path d="M160.168,88.420 L161.576,92.820 L158.760,92.820 Z" fill="#444"/><text x="162.408" y="29.040" font-size="6.4000" text-anchor="start" fill="#1f3f5f" font-family="sans-serif" transform="rotate(90 162.408 29.040)">H2</text><line x1="162.868" y1="50.460" x2="162.868" y2="169.920" stroke="#444" stroke-width="0.2400"/><path d="M162.868,60.140 L161.460,55.740 L164.276,55.740 Z" fill="#444"/><path d="M162.868,88.420 L164.276,92.820 L161.460,92.820 Z" fill="#444"/><text x="165.108" y="169.920" font-size="6.4000" text-anchor="end" fill="#1f3f5f" font-family="sans-serif" transform="rotate(90 165.108 169.920)">G1</text><line x1="196.506" y1="29.040" x2="196.506" y2="96.660" stroke="#444" stroke-width="0.2400"/><path d="M196.506,61.580 L195.098,57.180 L197.914,57.180 Z" fill="#444"/><path d="M196.506,86.980 L197.914,91.380 L195.098,91.380 Z" fill="#444"/><text x="198.746" y="29.040" font-size="6.4000" text-anchor="start" fill="#1f3f5f" font-family="sans-serif" transform="rotate(90 198.746 29.040)">F</text><line x1="19.488" y1="53.040" x2="5.888" y2="53.040" stroke="#999" stroke-width="0.1680"/><line x1="19.488" y1="95.520" x2="5.888" y2="95.520" stroke="#999" stroke-width="0.1680"/><line x1="9.488" y1="53.040" x2="9.488" y2="95.520" stroke="#444" stroke-width="0.2400"/><path d="M9.488,53.040 L10.896,57.440 L8.080,57.440 Z" fill="#444"/><path d="M9.488,95.520 L8.080,91.120 L10.896,91.120 Z" fill="#444"/><text x="11.728" y="74.280" font-size="6.4000" text-anchor="middle" fill="#1f3f5f" font-family="sans-serif" transform="rotate(90 11.728 74.280)">R1</text><path d="M78.087,48.185 A91.520,91.520 0 0 0 78.087,100.375" fill="none" stroke="#444" stroke-width="0.2400"/><path d="M78.087,48.185 L78.582,52.778 L75.823,52.212 Z" fill="#444"/><path d="M78.087,100.375 L75.823,96.348 L78.582,95.782 Z" fill="#444"/><line x1="165.808" y1="74.280" x2="70.419" y2="45.904" stroke="#999" stroke-width="0.1680"/><line x1="165.808" y1="74.280" x2="70.419" y2="102.656" stroke="#999" stroke-width="0.1680"/><text x="81.328" y="75.880" font-size="6.4000" text-anchor="middle" fill="#1f3f5f" font-family="sans-serif">α</text><path d="M184.604,90.926 A19.200,19.200 0 0 0 184.604,85.914" fill="none" stroke="#444" stroke-width="0.2400"/><path d="M184.604,90.926 L183.604,86.416 L186.408,86.673 Z" fill="#444"/><path d="M184.604,85.914 L186.408,90.167 L183.604,90.424 Z" fill="#444"/><line x1="165.568" y1="88.420" x2="197.294" y2="92.597" stroke="#999" stroke-width="0.1680"/><line x1="165.568" y1="88.420" x2="197.294" y2="84.243" stroke="#999" stroke-width="0.1680"/><text x="188.791" y="80.872" font-size="6.4000" text-anchor="middle" fill="#1f3f5f" font-family="sans-serif">α1</text><line x1="108.608" y1="57.280" x2="94.466" y2="43.138" stroke="#999" stroke-width="0.1680"/><path d="M108.608,57.280 L104.501,55.164 L106.492,53.173 Z" fill="#444"/><text x="91.977" y="42.912" font-size="6.4000" text-anchor="end" fill="#1f3f5f" font-family="sans-serif" transform="rotate(45 91.977 42.912)">r1 max</text><line x1="117.688" y1="88.580" x2="131.830" y2="102.722" stroke="#999" stroke-width="0.1680"/><path d="M117.688,88.580 L121.795,90.696 L119.804,92.687 Z" fill="#444"/><text x="132.056" y="105.211" font-size="6.4000" text-anchor="start" fill="#1f3f5f" font-family="sans-serif" transform="rotate(45 132.056 105.211)">r2</text></svg>