<svg xmlns="http://www.w3.org/2000/svg" width="35.8000" height="11.6500" viewBox="0 16.8000 107.4000 34.9500"><g transform="translate(124.2000 0) rotate(90)"><title>380 Long - visual</title><defs><clipPath id="contour-380_long"><path d="M49.65,123 L50.55,122.1 L50.55,119.25 L48.825,119.25 L48.825,50.1 L19.725,50.1 L19.725,119.25 L18,119.25 L18,122.1 L18.9,123 Z"/></clipPath><clipPath id="bullet-380_long"><path d="M48,50.1 L48,42.63 L47.994302,41.860312 L47.977192,41.090625 L47.948619,40.320937 L47.908499,39.55125 L47.85671,38.781563 L47.793094,38.011875 L47.717454,37.242188 L47.629548,36.4725 L47.529086,35.702813 L47.415728,34.933125 L47.289073,34.163438 L47.148653,33.39375 L46.993926,32.624063 L46.824257,31.854375 L46.638909,31.084688 L46.437019,30.315 L46.217573,29.545312 L45.979374,28.775625 L45.720993,28.005938 L45.440713,27.23625 L45.136443,26.466562 L44.805598,25.696875 L44.444927,24.927188 L44.050249,24.1575 L43.616036,23.387813 L43.134721,22.618125 L42.595451,21.848437 L41.981649,21.07875 L41.265566,20.309063 L40.393433,19.539375 L39.227437,18.769688 L36.33375,18 L32.21625,18 L29.322563,18.769688 L28.156567,19.539375 L27.284434,20.309063 L26.568351,21.07875 L25.954549,21.848437 L25.415279,22.618125 L24.933964,23.387813 L24.499751,24.1575 L24.105073,24.927188 L23.744402,25.696875 L23.413557,26.466562 L23.109287,27.23625 L22.829007,28.005938 L22.570626,28.775625 L22.332427,29.545312 L22.112981,30.315 L21.911091,31.084688 L21.725743,31.854375 L21.556074,32.624063 L21.401347,33.39375 L21.260927,34.163438 L21.134272,34.933125 L21.020914,35.702813 L20.920452,36.4725 L20.832546,37.242188 L20.756906,38.011875 L20.69329,38.781563 L20.641501,39.55125 L20.601381,40.320937 L20.572808,41.090625 L20.555698,41.860312 L20.55,42.63 L20.55,50.1 Z"/></clipPath></defs><g clip-path="url(#bullet-380_long)"><path d="M48,50.1 L48,42.63 L47.994302,41.860312 L47.977192,41.090625 L47.948619,40.320937 L47.908499,39.55125 L47.85671,38.781563 L47.793094,38.011875 L47.717454,37.242188 L47.629548,36.4725 L47.529086,35.702813 L47.415728,34.933125 L47.289073,34.163438 L47.148653,33.39375 L46.993926,32.624063 L46.824257,31.854375 L46.638909,31.084688 L46.437019,30.315 L46.217573,29.545312 L45.979374,28.775625 L45.720993,28.005938 L45.440713,27.23625 L45.136443,26.466562 L44.805598,25.696875 L44.444927,24.927188 L44.050249,24.1575 L43.616036,23.387813 L43.134721,22.618125 L42.595451,21.848437 L41.981649,21.07875 L41.265566,20.309063 L40.393433,19.539375 L39.227437,18.769688 L36.33375,18 L32.21625,18 L29.322563,18.769688 L28.156567,19.539375 L27.284434,20.309063 L26.568351,21.07875 L25.954549,21.848437 L25.415279,22.618125 L24.933964,23.387813 L24.499751,24.1575 L24.105073,24.927188 L23.744402,25.696875 L23.413557,26.466562 L23.109287,27.23625 L22.829007,28.005938 L22.570626,28.775625 L22.332427,29.545312 L22.112981,30.315 L21.911091,31.084688 L21.725743,31.854375 L21.556074,32.624063 L21.401347,33.39375 L21.260927,34.163438 L21.134272,34.933125 L21.020914,35.702813 L20.920452,36.4725 L20.832546,37.242188 L20.756906,38.011875 L20.69329,38.781563 L20.641501,39.55125 L20.601381,40.320937 L20.572808,41.090625 L20.555698,41.860312 L20.55,42.63 L20.55,50.1 Z" fill="#c78540" stroke="none"/><path d="M47.82,50.1 L47.82,42.630666 L47.814317,41.862979 L47.797266,41.095964 L47.768793,40.328962 L47.728813,39.561978 L47.677208,38.795019 L47.613821,38.028092 L47.538456,37.261203 L47.450875,36.494362 L47.350792,35.727576 L47.23787,34.960854 L47.111715,34.194206 L46.971866,33.427643 L46.817786,32.661178 L46.648852,31.894824 L46.464337,31.128597 L46.263393,30.362517 L46.045024,29.596603 L45.808052,28.830882 L45.551077,28.065384 L45.272417,27.300144 L44.970025,26.535206 L44.641375,25.770624 L44.283295,25.006467 L43.891715,24.242821 L43.461262,23.479799 L42.984601,22.717555 L42.451238,21.956298 L41.845194,21.196338 L41.139816,20.438158 L40.283765,19.682663 L39.152785,18.93609 L36.287481,18.18 L32.262519,18.18 L29.397215,18.93609 L28.266235,19.682663 L27.410184,20.438158 L26.704806,21.196338 L26.098762,21.956298 L25.565399,22.717555 L25.088738,23.479799 L24.658285,24.242821 L24.266705,25.006467 L23.908625,25.770624 L23.579975,26.535206 L23.277583,27.300144 L22.998923,28.065384 L22.741948,28.830882 L22.504976,29.596603 L22.286607,30.362517 L22.085663,31.128597 L21.901148,31.894824 L21.732214,32.661178 L21.578134,33.427643 L21.438285,34.194206 L21.31213,34.960854 L21.199208,35.727576 L21.099125,36.494362 L21.011544,37.261203 L20.936179,38.028092 L20.872792,38.795019 L20.821187,39.561978 L20.781207,40.328962 L20.752734,41.095964 L20.735683,41.862979 L20.73,42.630666 L20.73,50.1" fill="none" stroke="#6d4821" stroke-width="0.36"/></g><g clip-path="url(#contour-380_long)"><path d="M49.65,123 L50.55,122.1 L50.55,119.25 L48.825,119.25 L48.825,50.1 L19.725,50.1 L19.725,119.25 L18,119.25 L18,122.1 L18.9,123 Z" fill="#b5a642" stroke="none"/><line x1="18.2595055652238" y1="122.10000000000001" x2="50.2904944347762" y2="122.10000000000001" stroke="#635b24" stroke-width="0.36"/><line x1="19.905" y1="119.43" x2="48.644999999999996" y2="119.43" stroke="#635b24" stroke-width="0.36"/><path d="M49.522721,122.82 L50.37,122.025442 L50.37,119.43 L48.645,119.43 L48.645,50.28 L19.905,50.28 L19.905,119.43 L18.18,119.43 L18.18,122.025442 L19.027279,122.82 Z" fill="none" stroke="#635b24" stroke-width="0.36"/></g></g></svg>