<svg xmlns="http://www.w3.org/2000/svg" width="485.728" height="162.44" viewBox="0 0 485.728 162.44"><title>450/400 Mag. N.E. 3&quot;1/4 - technical</title><defs><clipPath id="contour-450_400_mag_n_e_3_1_4"><path d="M21.488,104.44 L25.768,104.44 L25.768,100.42 L221.316157,98.080343 L221.737361,98.074169 L222.158526,98.065728 L222.579639,98.055019 L223.000688,98.042043 L223.421662,98.0268 L223.842547,98.009291 L224.263332,97.989517 L224.684005,97.967477 L225.104552,97.943172 L225.524963,97.916603 L225.945224,97.887772 L226.365324,97.856678 L226.785251,97.823322 L227.204992,97.787707 L227.624535,97.749831 L228.043868,97.709698 L251.426219,95.408286 L251.893718,95.363688 L252.361475,95.321898 L252.829475,95.282915 L253.297701,95.246743 L253.766135,95.213382 L254.234761,95.182833 L254.703562,95.155097 L255.172521,95.130176 L255.641621,95.10807 L256.110845,95.08878 L256.580177,95.072306 L257.049599,95.058651 L257.519095,95.047813 L257.988647,95.039793 L258.458239,95.034592 L258.927853,95.032209 L351.688,94.84 L351.688,50.64 L258.927853,50.447791 L258.458239,50.445408 L257.988647,50.440207 L257.519095,50.432187 L257.049599,50.421349 L256.580177,50.407694 L256.110845,50.39122 L255.641621,50.37193 L255.172521,50.349824 L254.703562,50.324903 L254.234761,50.297167 L253.766135,50.266618 L253.297701,50.233257 L252.829475,50.197085 L252.361475,50.158102 L251.893718,50.116312 L251.426219,50.071714 L228.043868,47.770302 L227.624535,47.730169 L227.204992,47.692293 L226.785251,47.656678 L226.365324,47.623322 L225.945224,47.592228 L225.524963,47.563397 L225.104552,47.536828 L224.684005,47.512523 L224.263332,47.490483 L223.842547,47.470709 L223.421662,47.4532 L223.000688,47.437957 L222.579639,47.424981 L222.158526,47.414272 L221.737361,47.405831 L221.316157,47.399657 L25.768,45.06 L25.768,41.04 L21.488,41.04 Z"/></clipPath><clipPath id="bullet-450_400_mag_n_e_3_1_4"><path d="M351.688,93.56 L355.152,93.56 L357.36759,93.541729 L359.582577,93.48692 L361.796359,93.395588 L364.008334,93.267758 L366.217899,93.103464 L368.424455,92.902753 L370.6274,92.665677 L372.826136,92.392302 L375.020064,92.082702 L377.208587,91.73696 L379.391111,91.355172 L381.567041,90.937441 L383.735786,90.483881 L385.896756,89.994615 L388.049363,89.469776 L390.193021,88.909507 L392.327148,88.31396 L394.451162,87.683297 L396.564487,87.01769 L398.666546,86.31732 L400.756769,85.582377 L402.834587,84.813062 L404.899434,84.009583 L406.950749,83.17216 L408.987974,82.301019 L411.010555,81.396398 L413.017942,80.458543 L415.009588,79.48771 L416.984952,78.484161 L418.943496,77.448171 L420.884688,76.38002 L422.808,75.28 L422.808,70.2 L420.884688,69.09998 L418.943496,68.031829 L416.984952,66.995839 L415.009588,65.99229 L413.017942,65.021457 L411.010555,64.083602 L408.987974,63.178981 L406.950749,62.30784 L404.899434,61.470417 L402.834587,60.666938 L400.756769,59.897623 L398.666546,59.16268 L396.564487,58.46231 L394.451162,57.796703 L392.327148,57.16604 L390.193021,56.570493 L388.049363,56.010224 L385.896756,55.485385 L383.735786,54.996119 L381.567041,54.542559 L379.391111,54.124828 L377.208587,53.74304 L375.020064,53.397298 L372.826136,53.087698 L370.6274,52.814323 L368.424455,52.577247 L366.217899,52.376536 L364.008334,52.212242 L361.796359,52.084412 L359.582577,51.99308 L357.36759,51.938271 L355.152,51.92 L351.688,51.92 Z"/></clipPath></defs><g clip-path="url(#contour-450_400_mag_n_e_3_1_4)"><line x1="25.528" y1="45.29714567147606" x2="25.528" y2="100.18285432852396" stroke="#777" stroke-width="0.48"/><line x1="224.6879999999999" y1="47.753154818460516" x2="224.6879999999999" y2="97.7268451815395" stroke="#777" stroke-width="0.48"/><line x1="255.16800000000015" y1="50.58987765903689" x2="255.16800000000015" y2="94.89012234096313" stroke="#777" stroke-width="0.48"/></g><g clip-path="url(#contour-450_400_mag_n_e_3_1_4)"><path d="M21.728,104.2 L25.528,104.2 L25.528,100.182854 L221.312963,97.840364 L221.733198,97.834204 L222.153071,97.825789 L222.572892,97.815113 L222.99265,97.802177 L223.412332,97.786981 L223.831926,97.769526 L224.25142,97.749812 L224.670802,97.727839 L225.09006,97.703609 L225.509181,97.677122 L225.928153,97.648379 L226.346965,97.61738 L226.765603,97.584127 L227.184057,97.548621 L227.602313,97.510862 L228.020682,97.47082 L251.403069,95.169404 L251.871643,95.124704 L252.340835,95.082786 L252.810271,95.043684 L253.279933,95.007401 L253.749804,94.973937 L254.219867,94.943294 L254.690106,94.915473 L255.160504,94.890476 L255.631043,94.868302 L256.101707,94.848953 L256.572478,94.832429 L257.04334,94.818731 L257.514276,94.80786 L257.985268,94.799816 L258.456301,94.794598 L258.926996,94.79221 L351.448,94.600001 L351.448,50.879999 L258.926996,50.68779 L258.456301,50.685402 L257.985268,50.680184 L257.514276,50.67214 L257.04334,50.661269 L256.572478,50.647571 L256.101707,50.631047 L255.631043,50.611698 L255.160504,50.589524 L254.690106,50.564527 L254.219867,50.536706 L253.749804,50.506063 L253.279933,50.472599 L252.810271,50.436316 L252.340835,50.397214 L251.871643,50.355296 L251.403069,50.310596 L228.020682,48.00918 L227.602313,47.969138 L227.184057,47.931379 L226.765603,47.895873 L226.346965,47.86262 L225.928153,47.831621 L225.509181,47.802878 L225.09006,47.776391 L224.670802,47.752161 L224.25142,47.730188 L223.831926,47.710474 L223.412332,47.693019 L222.99265,47.677823 L222.572892,47.664887 L222.153071,47.654211 L221.733198,47.645796 L221.312963,47.639636 L25.528,45.297146 L25.528,41.28 L21.728,41.28 Z" fill="none" stroke="#111" stroke-width="0.48"/></g><g clip-path="url(#bullet-450_400_mag_n_e_3_1_4)"><path d="M351.688,93.32 L355.15101,93.32 L357.363632,93.301753 L359.574662,93.247042 L361.784488,93.155873 L363.992511,93.028272 L366.198129,92.864272 L368.400743,92.663919 L370.599752,92.427267 L372.79456,92.15438 L374.984568,91.845333 L377.169182,91.500209 L379.347806,91.119103 L381.519849,90.702119 L383.68472,90.249369 L385.841829,89.760977 L387.99059,89.237075 L390.130418,88.677807 L392.260732,88.083324 L394.380952,87.453788 L396.490501,86.78937 L398.588805,86.090251 L400.675293,85.356622 L402.749399,84.588681 L404.810557,83.786638 L406.858207,82.95071 L408.891793,82.081126 L410.91076,81.178121 L412.914561,80.241942 L414.902648,79.272842 L416.874483,78.271087 L418.829528,77.236947 L420.767253,76.170705 L422.568,75.071668 L422.568,70.408332 L420.767253,69.309295 L418.829528,68.243053 L416.874483,67.208913 L414.902648,66.207158 L412.914561,65.238058 L410.91076,64.301879 L408.891793,63.398874 L406.858207,62.52929 L404.810557,61.693362 L402.749399,60.891319 L400.675293,60.123378 L398.588805,59.389749 L396.490501,58.69063 L394.380952,58.026212 L392.260732,57.396676 L390.130418,56.802193 L387.99059,56.242925 L385.841829,55.719023 L383.68472,55.230631 L381.519849,54.777881 L379.347806,54.360897 L377.169182,53.979791 L374.984568,53.634667 L372.79456,53.32562 L370.599752,53.052733 L368.400743,52.816081 L366.198129,52.615728 L363.992511,52.451728 L361.784488,52.324127 L359.574662,52.232958 L357.363632,52.178247 L355.15101,52.16 L351.688,52.16" fill="none" stroke="#111" stroke-width="0.48"/></g><line x1="21.488" y1="7.440" x2="21.488" y2="158.440" stroke="#999" stroke-width="0.1680"/><line x1="224.688" y1="99.967" x2="224.688" y2="120.040" stroke="#999" stroke-width="0.1680"/><line x1="21.488" y1="116.440" x2="224.688" y2="116.440" stroke="#444" stroke-width="0.2400"/><path d="M21.488,116.440 L25.888,115.032 L25.888,117.848 Z" fill="#444"/><path d="M224.688,116.440 L220.288,117.848 L220.288,115.032 Z" fill="#444"/><text x="163.728" y="114.200" font-size="6.4000" text-anchor="middle" fill="#1f3f5f" font-family="sans-serif">L1</text><line x1="255.168" y1="97.130" x2="255.168" y2="132.840" stroke="#999" stroke-width="0.1680"/><line x1="21.488" y1="129.240" x2="255.168" y2="129.240" stroke="#444" stroke-width="0.2400"/><path d="M21.488,129.240 L25.888,127.832 L25.888,130.648 Z" fill="#444"/><path d="M255.168,129.240 L250.768,130.648 L250.768,127.832 Z" fill="#444"/><text x="163.728" y="127.000" font-size="6.4000" text-anchor="middle" fill="#1f3f5f" font-family="sans-serif">L2</text><line x1="351.688" y1="96.840" x2="351.688" y2="145.640" stroke="#999" stroke-width="0.1680"/><line x1="21.488" y1="142.040" x2="351.688" y2="142.040" stroke="#444" stroke-width="0.2400"/><path d="M21.488,142.040 L25.888,140.632 L25.888,143.448 Z" fill="#444"/><path d="M351.688,142.040 L347.288,143.448 L347.288,140.632 Z" fill="#444"/><text x="163.728" y="139.800" font-size="6.4000" text-anchor="middle" fill="#1f3f5f" font-family="sans-serif">L3</text><line x1="422.808" y1="77.280" x2="422.808" y2="158.440" stroke="#999" stroke-width="0.1680"/><line x1="21.488" y1="154.840" x2="422.808" y2="154.840" stroke="#444" stroke-width="0.2400"/><path d="M21.488,154.840 L25.888,153.432 L25.888,156.248 Z" fill="#444"/><path d="M422.808,154.840 L418.408,156.248 L418.408,153.432 Z" fill="#444"/><text x="163.728" y="152.600" font-size="6.4000" text-anchor="middle" fill="#1f3f5f" font-family="sans-serif">L6</text><line x1="481.728" y1="72.740" x2="481.728" y2="7.440" stroke="#999" stroke-width="0.1680"/><line x1="21.488" y1="11.040" x2="481.728" y2="11.040" stroke="#444" stroke-width="0.2400"/><path d="M21.488,11.040 L25.888,9.632 L25.888,12.448 Z" fill="#444"/><path d="M481.728,11.040 L477.328,12.448 L477.328,9.632 Z" fill="#444"/><text x="343.656" y="8.800" font-size="6.4000" text-anchor="middle" fill="#1f3f5f" font-family="sans-serif">S</text><line x1="25.768" y1="39.040" x2="25.768" y2="25.440" stroke="#999" stroke-width="0.1680"/><line x1="11.808" y1="29.040" x2="35.448" y2="29.040" stroke="#444" stroke-width="0.2400"/><path d="M21.488,29.040 L17.088,30.448 L17.088,27.632 Z" fill="#444"/><path d="M25.768,29.040 L30.168,27.632 L30.168,30.448 Z" fill="#444"/><text x="7.968" y="30.640" font-size="6.4000" text-anchor="end" fill="#1f3f5f" font-family="sans-serif">R</text><line x1="65.552" y1="29.040" x2="65.552" y2="110.100" stroke="#444" stroke-width="0.2400"/><path d="M65.552,45.060 L64.144,40.660 L66.960,40.660 Z" fill="#444"/><path d="M65.552,100.420 L66.960,104.820 L64.144,104.820 Z" fill="#444"/><text x="67.792" y="29.040" font-size="6.4000" text-anchor="start" fill="#1f3f5f" font-family="sans-serif" transform="rotate(90 67.792 29.040)">P1</text><line x1="224.688" y1="29.040" x2="224.688" y2="107.720" stroke="#444" stroke-width="0.2400"/><path d="M224.688,47.440 L223.280,43.040 L226.096,43.040 Z" fill="#444"/><path d="M224.688,98.040 L226.096,102.440 L223.280,102.440 Z" fill="#444"/><text x="226.928" y="29.040" font-size="6.4000" text-anchor="start" fill="#1f3f5f" font-family="sans-serif" transform="rotate(90 226.928 29.040)">P2</text><line x1="255.168" y1="29.040" x2="255.168" y2="104.720" stroke="#444" stroke-width="0.2400"/><path d="M255.168,50.440 L253.760,46.040 L256.576,46.040 Z" fill="#444"/><path d="M255.168,95.040 L256.576,99.440 L253.760,99.440 Z" fill="#444"/><text x="257.408" y="29.040" font-size="6.4000" text-anchor="start" fill="#1f3f5f" font-family="sans-serif" transform="rotate(90 257.408 29.040)">H1</text><line x1="351.688" y1="29.040" x2="351.688" y2="104.520" stroke="#444" stroke-width="0.2400"/><path d="M351.688,50.640 L350.280,46.240 L353.096,46.240 Z" fill="#444"/><path d="M351.688,94.840 L353.096,99.240 L350.280,99.240 Z" fill="#444"/><text x="353.928" y="29.040" font-size="6.4000" text-anchor="start" fill="#1f3f5f" font-family="sans-serif" transform="rotate(90 353.928 29.040)">H2</text><line x1="353.552" y1="42.240" x2="353.552" y2="116.440" stroke="#444" stroke-width="0.2400"/><path d="M353.552,51.920 L352.144,47.520 L354.960,47.520 Z" fill="#444"/><path d="M353.552,93.560 L354.960,97.960 L352.144,97.960 Z" fill="#444"/><text x="355.792" y="116.440" font-size="6.4000" text-anchor="end" fill="#1f3f5f" font-family="sans-serif" transform="rotate(90 355.792 116.440)">G1</text><line x1="19.488" y1="41.040" x2="5.888" y2="41.040" stroke="#999" stroke-width="0.1680"/><line x1="19.488" y1="104.440" x2="5.888" y2="104.440" stroke="#999" stroke-width="0.1680"/><line x1="9.488" y1="41.040" x2="9.488" y2="104.440" stroke="#444" stroke-width="0.2400"/><path d="M9.488,41.040 L10.896,45.440 L8.080,45.440 Z" fill="#444"/><path d="M9.488,104.440 L8.080,100.040 L10.896,100.040 Z" fill="#444"/><text x="11.728" y="72.740" font-size="6.4000" text-anchor="middle" fill="#1f3f5f" font-family="sans-serif" transform="rotate(90 11.728 72.740)">R1</text><path d="M72.442,32.456 A411.264,411.264 0 0 0 72.442,113.024" fill="none" stroke="#444" stroke-width="0.2400"/><path d="M72.442,32.456 L73.544,36.942 L70.735,36.749 Z" fill="#444"/><path d="M72.442,113.024 L70.735,108.731 L73.544,108.538 Z" fill="#444"/><line x1="481.728" y1="72.740" x2="64.480" y2="31.672" stroke="#999" stroke-width="0.1680"/><line x1="481.728" y1="72.740" x2="64.480" y2="113.808" stroke="#999" stroke-width="0.1680"/><text x="77.504" y="74.340" font-size="6.4000" text-anchor="middle" fill="#1f3f5f" font-family="sans-serif">α</text><line x1="224.688" y1="47.440" x2="210.546" y2="33.298" stroke="#999" stroke-width="0.1680"/><path d="M224.688,47.440 L220.581,45.324 L222.572,43.333 Z" fill="#444"/><text x="208.057" y="33.072" font-size="6.4000" text-anchor="end" fill="#1f3f5f" font-family="sans-serif" transform="rotate(45 208.057 33.072)">r1 min</text><line x1="255.168" y1="95.040" x2="269.310" y2="109.182" stroke="#999" stroke-width="0.1680"/><path d="M255.168,95.040 L259.275,97.156 L257.284,99.147 Z" fill="#444"/><text x="269.536" y="111.671" font-size="6.4000" text-anchor="start" fill="#1f3f5f" font-family="sans-serif" transform="rotate(45 269.536 111.671)">r2</text></svg>